<svg width="64" height="61" viewBox="0 0 64 61" fill="none" xmlns="http://www.w3.org/2000/svg">
<path d="M30.5107 29.2998V42.3125C30.0713 42.9635 29.3714 43.696 28.4111 44.5098C27.4508 45.3073 26.1243 46.0072 24.4316 46.6094C22.7552 47.1953 20.5905 47.4883 17.9375 47.4883C15.7728 47.4883 13.779 47.1139 11.9561 46.3652C10.1494 45.6003 8.57878 44.4935 7.24414 43.0449C5.92578 41.5801 4.90039 39.806 4.16797 37.7227C3.45182 35.623 3.09375 33.2467 3.09375 30.5938V27.835C3.09375 25.182 3.40299 22.8138 4.02148 20.7305C4.65625 18.6471 5.58398 16.8812 6.80469 15.4326C8.02539 13.9678 9.52279 12.861 11.2969 12.1123C13.071 11.3473 15.1055 10.9648 17.4004 10.9648C20.1185 10.9648 22.389 11.4368 24.2119 12.3809C26.0511 13.3086 27.4834 14.5944 28.5088 16.2383C29.5505 17.8822 30.2178 19.7539 30.5107 21.8535H25.7988C25.5872 20.5677 25.1641 19.3958 24.5293 18.3379C23.9108 17.2799 23.0238 16.4336 21.8682 15.7988C20.7126 15.1478 19.2233 14.8223 17.4004 14.8223C15.7565 14.8223 14.3324 15.1234 13.1279 15.7256C11.9235 16.3278 10.9307 17.1904 10.1494 18.3135C9.36816 19.4365 8.78223 20.7956 8.3916 22.3906C8.01725 23.9857 7.83008 25.7842 7.83008 27.7861V30.5938C7.83008 32.6445 8.06608 34.4756 8.53809 36.0869C9.02637 37.6982 9.7181 39.0736 10.6133 40.2129C11.5085 41.3359 12.5745 42.1904 13.8115 42.7764C15.0648 43.3623 16.4482 43.6553 17.9619 43.6553C19.6383 43.6553 20.9974 43.5169 22.0391 43.2402C23.0807 42.9473 23.8945 42.6055 24.4805 42.2148C25.0664 41.8079 25.514 41.4255 25.8232 41.0674V33.1084H17.5957V29.2998H30.5107Z" fill="#40B43D"/>
<path d="M57.2686 38.0156C57.2686 37.1855 57.1383 36.4531 56.8779 35.8184C56.6338 35.1673 56.1943 34.5814 55.5596 34.0605C54.9411 33.5397 54.0785 33.0433 52.9717 32.5713C51.8812 32.0993 50.4977 31.6191 48.8213 31.1309C47.0635 30.61 45.4766 30.0322 44.0605 29.3975C42.6445 28.7464 41.432 28.0059 40.4229 27.1758C39.4137 26.3457 38.6406 25.3936 38.1035 24.3193C37.5664 23.2451 37.2979 22.0163 37.2979 20.6328C37.2979 19.2493 37.5827 17.9717 38.1523 16.7998C38.722 15.6279 39.5358 14.6107 40.5938 13.748C41.668 12.8691 42.9456 12.1855 44.4268 11.6973C45.9079 11.209 47.5599 10.9648 49.3828 10.9648C52.0521 10.9648 54.3145 11.4775 56.1699 12.5029C58.0417 13.512 59.4658 14.8385 60.4424 16.4824C61.4189 18.11 61.9072 19.8516 61.9072 21.707H57.2197C57.2197 20.3724 56.9349 19.1924 56.3652 18.167C55.7956 17.1253 54.9329 16.3115 53.7773 15.7256C52.6217 15.1234 51.1569 14.8223 49.3828 14.8223C47.7064 14.8223 46.3229 15.0745 45.2324 15.5791C44.1419 16.0837 43.3281 16.7673 42.791 17.6299C42.2702 18.4925 42.0098 19.4772 42.0098 20.584C42.0098 21.3327 42.1644 22.0163 42.4736 22.6348C42.7992 23.237 43.2956 23.7985 43.9629 24.3193C44.6465 24.8402 45.5091 25.3203 46.5508 25.7598C47.6087 26.1992 48.8701 26.6224 50.335 27.0293C52.3532 27.599 54.0947 28.2337 55.5596 28.9336C57.0244 29.6335 58.2288 30.4229 59.1729 31.3018C60.1331 32.1644 60.8411 33.1491 61.2969 34.2559C61.7689 35.3464 62.0049 36.5833 62.0049 37.9668C62.0049 39.4154 61.7119 40.7256 61.126 41.8975C60.54 43.0693 59.7018 44.0703 58.6113 44.9004C57.5208 45.7305 56.2106 46.3734 54.6807 46.8291C53.167 47.2686 51.4743 47.4883 49.6025 47.4883C47.9587 47.4883 46.3392 47.2604 44.7441 46.8047C43.1654 46.349 41.7249 45.6654 40.4229 44.7539C39.137 43.8424 38.1035 42.7194 37.3223 41.3848C36.5573 40.0339 36.1748 38.4714 36.1748 36.6973H40.8623C40.8623 37.918 41.0983 38.9678 41.5703 39.8467C42.0423 40.7093 42.6852 41.4255 43.499 41.9951C44.3291 42.5648 45.265 42.988 46.3066 43.2646C47.3646 43.5251 48.4632 43.6553 49.6025 43.6553C51.2464 43.6553 52.638 43.4274 53.7773 42.9717C54.9167 42.516 55.7793 41.8649 56.3652 41.0186C56.9674 40.1722 57.2686 39.1712 57.2686 38.0156Z" fill="black"/>
<path d="M9.08203 56.2969V58.3203C9.01693 58.4167 8.90495 58.5234 8.74609 58.6406C8.58724 58.7578 8.3737 58.8607 8.10547 58.9492C7.83724 59.0352 7.50391 59.0781 7.10547 59.0781C6.77214 59.0781 6.46615 59.0182 6.1875 58.8984C5.90885 58.7786 5.66667 58.6055 5.46094 58.3789C5.25781 58.1497 5.10026 57.875 4.98828 57.5547C4.87891 57.2344 4.82422 56.875 4.82422 56.4766V55.7891C4.82422 55.3984 4.875 55.0469 4.97656 54.7344C5.07812 54.4193 5.22526 54.1497 5.41797 53.9258C5.61068 53.7018 5.84245 53.5312 6.11328 53.4141C6.38672 53.2943 6.69271 53.2344 7.03125 53.2344C7.45312 53.2344 7.80859 53.3073 8.09766 53.4531C8.38672 53.599 8.61198 53.7995 8.77344 54.0547C8.9375 54.3073 9.03906 54.5938 9.07812 54.9141H8.59766C8.5612 54.6875 8.48568 54.4792 8.37109 54.2891C8.25651 54.0964 8.08984 53.9414 7.87109 53.8242C7.65495 53.707 7.375 53.6484 7.03125 53.6484C6.75521 53.6484 6.50911 53.6992 6.29297 53.8008C6.07943 53.9023 5.89974 54.0469 5.75391 54.2344C5.60807 54.4219 5.4974 54.6471 5.42188 54.9102C5.34635 55.1706 5.30859 55.4609 5.30859 55.7812V56.4766C5.30859 56.8099 5.35026 57.1107 5.43359 57.3789C5.51953 57.6471 5.64193 57.8776 5.80078 58.0703C5.95964 58.263 6.14974 58.4115 6.37109 58.5156C6.59245 58.6172 6.83854 58.668 7.10938 58.668C7.39844 58.668 7.64453 58.6406 7.84766 58.5859C8.05078 58.5312 8.21354 58.4661 8.33594 58.3906C8.46094 58.3125 8.55078 58.2396 8.60547 58.1719V56.707H7.07812V56.2969H9.08203ZM10.4453 53.3125H12.293C12.6862 53.3125 13.0273 53.3763 13.3164 53.5039C13.6055 53.6315 13.8281 53.8203 13.9844 54.0703C14.1432 54.3177 14.2227 54.6224 14.2227 54.9844C14.2227 55.2526 14.1654 55.4961 14.0508 55.7148C13.9388 55.9336 13.7839 56.1172 13.5859 56.2656C13.388 56.4115 13.1589 56.5117 12.8984 56.5664L12.7305 56.6289H10.7578L10.75 56.2188H12.4023C12.6992 56.2188 12.9466 56.1615 13.1445 56.0469C13.3424 55.9323 13.4909 55.7812 13.5898 55.5938C13.6914 55.4036 13.7422 55.2005 13.7422 54.9844C13.7422 54.7266 13.6862 54.5039 13.5742 54.3164C13.4648 54.1263 13.3021 53.9805 13.0859 53.8789C12.8698 53.7773 12.6055 53.7266 12.293 53.7266H10.9258V59H10.4453V53.3125ZM13.957 59L12.4844 56.457L13 56.4531L14.4688 58.9492V59H13.957ZM19.0781 58.5898V59H15.8789V58.5898H19.0781ZM16.0234 53.3125V59H15.543V53.3125H16.0234ZM18.6797 55.8633V56.2734H15.8789V55.8633H18.6797ZM19.0586 53.3125V53.7266H15.8789V53.3125H19.0586ZM23.6328 58.5898V59H20.4336V58.5898H23.6328ZM20.5781 53.3125V59H20.0977V53.3125H20.5781ZM23.2344 55.8633V56.2734H20.4336V55.8633H23.2344ZM23.6133 53.3125V53.7266H20.4336V53.3125H23.6133ZM28.8867 53.3125V59H28.4023L25.1328 54.1406V59H24.6523V53.3125H25.1328L28.4102 58.1719V53.3125H28.8867Z" fill="#40B43D"/>
<path d="M33.5586 57.6016C33.5586 57.4453 33.5326 57.306 33.4805 57.1836C33.4284 57.0612 33.3424 56.9518 33.2227 56.8555C33.1055 56.7565 32.9466 56.6654 32.7461 56.582C32.5482 56.4961 32.3008 56.4115 32.0039 56.3281C31.7201 56.2474 31.4635 56.1589 31.2344 56.0625C31.0052 55.9661 30.8086 55.8555 30.6445 55.7305C30.4831 55.6055 30.3594 55.4596 30.2734 55.293C30.1875 55.1237 30.1445 54.9271 30.1445 54.7031C30.1445 54.4844 30.1914 54.2852 30.2852 54.1055C30.3789 53.9258 30.5104 53.7708 30.6797 53.6406C30.8516 53.5104 31.0534 53.4102 31.2852 53.3398C31.5195 53.2695 31.776 53.2344 32.0547 53.2344C32.4531 53.2344 32.7969 53.3099 33.0859 53.4609C33.3776 53.612 33.6029 53.8164 33.7617 54.0742C33.9232 54.3294 34.0039 54.6159 34.0039 54.9336H33.5234C33.5234 54.6862 33.4648 54.4661 33.3477 54.2734C33.2331 54.0781 33.0664 53.9258 32.8477 53.8164C32.6315 53.7044 32.3672 53.6484 32.0547 53.6484C31.7422 53.6484 31.4792 53.6966 31.2656 53.793C31.0547 53.8867 30.8945 54.013 30.7852 54.1719C30.6784 54.3281 30.625 54.5026 30.625 54.6953C30.625 54.8307 30.651 54.9557 30.7031 55.0703C30.7552 55.1823 30.8398 55.2878 30.957 55.3867C31.0768 55.4831 31.2344 55.5742 31.4297 55.6602C31.625 55.7435 31.8659 55.8229 32.1523 55.8984C32.4544 55.9818 32.7227 56.0742 32.957 56.1758C33.1914 56.2773 33.3893 56.3945 33.5508 56.5273C33.7122 56.6576 33.8346 56.8099 33.918 56.9844C34.0013 57.1589 34.043 57.362 34.043 57.5938C34.043 57.8255 33.9935 58.0339 33.8945 58.2188C33.7982 58.401 33.6615 58.556 33.4844 58.6836C33.3099 58.8112 33.1029 58.9089 32.8633 58.9766C32.6263 59.0443 32.3672 59.0781 32.0859 59.0781C31.8333 59.0781 31.582 59.0456 31.332 58.9805C31.082 58.9154 30.8529 58.8151 30.6445 58.6797C30.4388 58.5417 30.2734 58.3646 30.1484 58.1484C30.026 57.9323 29.9648 57.6745 29.9648 57.375H30.4414C30.4414 57.6146 30.4896 57.8164 30.5859 57.9805C30.6823 58.1445 30.8099 58.2773 30.9688 58.3789C31.1302 58.4805 31.3073 58.5547 31.5 58.6016C31.6953 58.6458 31.8906 58.668 32.0859 58.668C32.3854 58.668 32.6445 58.6237 32.8633 58.5352C33.0846 58.4466 33.2552 58.3229 33.375 58.1641C33.4974 58.0026 33.5586 57.8151 33.5586 57.6016ZM38.6172 58.5898V59H35.418V58.5898H38.6172ZM35.5625 53.3125V59H35.082V53.3125H35.5625ZM38.2188 55.8633V56.2734H35.418V55.8633H38.2188ZM38.5977 53.3125V53.7266H35.418V53.3125H38.5977ZM39.625 53.3125H41.4727C41.8659 53.3125 42.207 53.3763 42.4961 53.5039C42.7852 53.6315 43.0078 53.8203 43.1641 54.0703C43.3229 54.3177 43.4023 54.6224 43.4023 54.9844C43.4023 55.2526 43.3451 55.4961 43.2305 55.7148C43.1185 55.9336 42.9635 56.1172 42.7656 56.2656C42.5677 56.4115 42.3385 56.5117 42.0781 56.5664L41.9102 56.6289H39.9375L39.9297 56.2188H41.582C41.8789 56.2188 42.1263 56.1615 42.3242 56.0469C42.5221 55.9323 42.6706 55.7812 42.7695 55.5938C42.8711 55.4036 42.9219 55.2005 42.9219 54.9844C42.9219 54.7266 42.8659 54.5039 42.7539 54.3164C42.6445 54.1263 42.4818 53.9805 42.2656 53.8789C42.0495 53.7773 41.7852 53.7266 41.4727 53.7266H40.1055V59H39.625V53.3125ZM43.1367 59L41.6641 56.457L42.1797 56.4531L43.6484 58.9492V59H43.1367ZM46.4219 58.293L48.2148 53.3125H48.7383L46.6211 59H46.2344L46.4219 58.293ZM44.5703 53.3125L46.3555 58.293L46.5508 59H46.1602L44.0469 53.3125H44.5703ZM50.168 53.3125V59H49.6875V53.3125H50.168ZM55.2578 57.2266H55.7383C55.6992 57.6094 55.5938 57.9401 55.4219 58.2188C55.25 58.4948 55.0156 58.707 54.7188 58.8555C54.4219 59.0039 54.0638 59.0781 53.6445 59.0781C53.3216 59.0781 53.0286 59.0169 52.7656 58.8945C52.5052 58.7721 52.2812 58.599 52.0938 58.375C51.9062 58.1484 51.7617 57.8776 51.6602 57.5625C51.5586 57.2474 51.5078 56.8971 51.5078 56.5117V55.8008C51.5078 55.4154 51.5586 55.0664 51.6602 54.7539C51.7617 54.4388 51.9076 54.168 52.0977 53.9414C52.2878 53.7148 52.5156 53.5404 52.7812 53.418C53.0469 53.2956 53.3464 53.2344 53.6797 53.2344C54.0833 53.2344 54.4323 53.3086 54.7266 53.457C55.0208 53.6029 55.2526 53.8138 55.4219 54.0898C55.5938 54.3659 55.6992 54.6992 55.7383 55.0898H55.2578C55.2214 54.7826 55.1406 54.5221 55.0156 54.3086C54.8906 54.0951 54.7174 53.9323 54.4961 53.8203C54.2773 53.7057 54.0052 53.6484 53.6797 53.6484C53.4141 53.6484 53.1771 53.6992 52.9688 53.8008C52.7604 53.9023 52.5833 54.0482 52.4375 54.2383C52.2917 54.4258 52.1797 54.651 52.1016 54.9141C52.026 55.1771 51.9883 55.4701 51.9883 55.793V56.5117C51.9883 56.8242 52.0247 57.112 52.0977 57.375C52.1706 57.638 52.2773 57.8659 52.418 58.0586C52.5612 58.2513 52.7357 58.401 52.9414 58.5078C53.1471 58.6146 53.3815 58.668 53.6445 58.668C53.9805 58.668 54.2604 58.6146 54.4844 58.5078C54.7109 58.3984 54.8867 58.237 55.0117 58.0234C55.1367 57.8099 55.2188 57.5443 55.2578 57.2266ZM60.4453 58.5898V59H57.2461V58.5898H60.4453ZM57.3906 53.3125V59H56.9102V53.3125H57.3906ZM60.0469 55.8633V56.2734H57.2461V55.8633H60.0469ZM60.4258 53.3125V53.7266H57.2461V53.3125H60.4258Z" fill="black"/>
</svg>
